<?xml version="1.0" encoding="utf-8"?>
<!-- Generator: Adobe Illustrator 17.1.0, SVG Export Plug-In . SVG Version: 6.00 Build 0)  -->
<!DOCTYPE svg PUBLIC "-//W3C//DTD SVG 1.1//EN" "http://www.w3.org/Graphics/SVG/1.1/DTD/svg11.dtd">
<svg version="1.1" xmlns="http://www.w3.org/2000/svg" xmlns:xlink="http://www.w3.org/1999/xlink" x="0px" y="0px"
	 viewBox="0 0 759 759" enable-background="new 0 0 759 759" xml:space="preserve">
<g id="Layer_1" display="none">
	<line display="inline" fill="none" x1="637.5" y1="67.5" x2="646.5" y2="63"/>
</g>
<g id="Layer_2">
	<g>
		<polygon fill-rule="evenodd" clip-rule="evenodd" fill="#FFFFFF" points="0,0 759,0 759,759 0,759 0,0 		"/>
		<path fill-rule="evenodd" clip-rule="evenodd" d="M325.1,224.7v15.6c0,38.4,0.1,60.1,0.3,65c0.2,4.2,0.9,7.5,2.2,9.8
			c0.8,1.4,2.3,2.8,4.4,4.4h-17.1H297c1.5-1.7,2.9-3.3,4.4-4.8c1.7-2.5,2.7-5.7,2.8-9.5c0.3-5.6,0.4-27.1,0.4-64.6v-16.3
			c0-12-0.1-19.5-0.4-22.3l-7.4-0.3c-3.1-0.1-6.1,0.9-8.8,3c-2,1.6-3.4,3.3-4.3,5.2c0-1.3,0.4-3.1,1.2-5.4c1-2.8,1.7-5.1,2.1-6.9
			c0.4-1.2,1.1-4,2.1-8.4c2.1-0.1,5.7-0.1,10.7,0c5.9,0,10.3,0,13.2,0c12.2,0,21-0.3,26.3-0.9c0.1,1.9,1,5.5,2.6,11
			c1,2.7,2.2,6.2,3.4,10.6c-2.2-2.7-3.9-4.4-5-5.2c-2.9-2.2-6.2-3.2-9.8-3l-5.6,0.3c0.1,1.7,0.1,4.8,0,9.2
			C325,217.4,325.1,221.9,325.1,224.7L325.1,224.7z"/>
		<path fill-rule="evenodd" clip-rule="evenodd" d="M397,247.3v26.2c0,22.7,5.7,38.1,2.5,38.1h-10.6h-12c1.5-4.3,2.2-9.8,2.2-16.4
			v-34.4h-21.5l-0.1,31.7c0,9.2,0.7,15.6,2.1,19.2h-9.9h-12.3c1.6-4.2,2.3-9.3,2.3-15.1v-48.9c0-11.3-0.1-18.4-0.3-21.2
			c-0.2-4.5-0.9-8.4-2.1-11.8c0.6,0,1.6,0,3,0h6.3h12.5c-1.1,3.9-1.7,8.9-1.7,15.1v18.4h21.5c0-8.7,0-15.7,0-20.9
			c-0.1-4.9-0.7-9.1-1.8-12.6c1.1,0,2.8,0,5.2,0h5.9h11.3c-0.5,0.9-1.1,3.1-1.9,6.6C397.3,226.3,397,235,397,247.3L397,247.3z"/>
		<path fill-rule="evenodd" clip-rule="evenodd" d="M423.9,263.2l-0.3,28c-0.1,5.8,0,9.1,0.1,9.8c0.3,1.6,1.2,2.3,2.8,2.3
			c0.6,0,1.7-0.1,3.6-0.4c6-0.8,9.8-1.6,11.6-2.3c2.3-1,5.4-3.5,9.4-7.6c-0.6,4.2-1.5,10.3-2.9,18.4h-20.8c0.1,0-4.3,0-13.1,0
			c-5.3-0.1-9.7-0.1-13.2,0c0.7-1.8,1.2-3.1,1.4-3.9c0.5-1.4,0.7-3.2,0.8-5.4c0.3-5,0.4-14.3,0.4-28.1v-24.5c0-6.9,0-13.7-0.1-20.4
			c-0.2-4.6-0.5-7.8-0.8-9.6c-0.2-1-0.8-2.7-1.9-5c1.7-0.1,4.3-0.1,7.9,0h12h27.5c0.1,0.1-0.1,2.4-0.7,7.1l-1,7.5
			c-1.2-1.8-2.2-2.9-2.9-3.2c-0.7-0.3-2.4-0.6-5.1-0.8c-4.3-0.3-9.2-0.3-14.7-0.1v26.7h6.6c4.2,0,6.9-0.1,8-0.3
			c1.7-0.2,3.4-0.8,5.1-1.8l0,6.9c0,6,0,9,0,9c-1.8-1.5-5.2-2.2-10.2-2.2H423.9L423.9,263.2z"/>
		<path fill-rule="evenodd" clip-rule="evenodd" d="M46.8,382.4V295c0-34.7-0.2-59.7-0.5-74.9c-0.3-15.3-1.4-27.4-3.3-36.4
			c-1.7-6.1-3.3-12.1-5-18.2h42.6h21.9c14.4,0,24.8,2,31,6c9.8,6.3,17.1,19,21.9,38.3c2.7,12.1,4.1,25.5,4.1,40.1
			c0,27-4.2,47.9-12.5,62.7c-5.4,9.2-11.6,14.9-18.5,17.2c6.7,2.1,11.4,4,14.1,5.6c5.6,3.4,10.2,8.2,13.8,14.4
			c9,15.1,13.5,36.9,13.5,65.5c0,39.9-7.8,67.7-23.5,83.4c-9.8,10-22.1,14.8-37,14.4c-18.2-0.5-40.7-1-67.7-1.7c-2.3,0-3.1,0-2.4,0
			c0.7,0,1,0,0.8,0c-0.2,0-1.8,0-4.7,0c6.3-7.5,9.7-17.8,10.3-30.7C46.5,464.4,46.8,431.5,46.8,382.4L46.8,382.4z M86.3,190.4v114.4
			c4,2.5,8.5,3.8,13.5,3.8c5.6,0,10.7-4.4,15-13.2c5.4-10,8.1-23,8.1-38.9c0-19-1.7-34.7-5-47c-4.2-14.8-10.1-21.9-17.9-21.3
			C96.5,188.6,91.9,189.3,86.3,190.4L86.3,190.4z M86.6,343.3v122.8c0,9.6,1.3,16.2,3.8,19.9c2.5,3.7,7.2,5.3,14.1,4.9
			c18.4-0.8,27.6-26.7,27.6-77.7c0-16.1-2.9-31.9-8.8-47.3c-6.7-17.8-14.6-26.6-23.8-26.6C99.2,339.2,94.9,340.6,86.6,343.3
			L86.6,343.3z"/>
		<path fill-rule="evenodd" clip-rule="evenodd" d="M212.1,421.5l-0.5,52.4c-0.1,10.8,0,17,0.3,18.3c0.5,2.9,2.2,4.4,5.2,4.4
			c1,0,3.3-0.3,6.7-0.8c11.2-1.5,18.4-3,21.7-4.4c4.3-1.9,10.2-6.6,17.6-14.2c-1,7.9-2.8,19.4-5.4,34.5h-39c0.2,0-8,0-24.5,0
			c-10-0.2-18.3-0.2-24.8,0c1.4-3.4,2.2-5.9,2.6-7.2c0.9-2.6,1.4-5.9,1.6-10.1c0.5-9.3,0.8-26.9,0.8-52.7v-46
			c0-12.9-0.1-25.7-0.3-38.2c-0.4-8.6-0.9-14.6-1.6-18.1c-0.4-1.9-1.6-5-3.6-9.3c3.1-0.2,8-0.2,14.7,0h22.5h51.7
			c0.2,0.2-0.3,4.6-1.3,13.3l-1.8,14c-2.2-3.4-4-5.5-5.4-6.1c-1.4-0.6-4.6-1.1-9.6-1.4c-8.1-0.5-17.3-0.6-27.6-0.3v50.1h12.4
			c7.9,0,12.9-0.2,15-0.5c3.3-0.3,6.5-1.5,9.6-3.4l0.1,12.9c0,11.2,0,16.8-0.1,16.8c-3.4-2.8-9.8-4.1-19.1-4.1H212.1L212.1,421.5z"
			/>
		<path fill-rule="evenodd" clip-rule="evenodd" d="M346.6,401.9l7,36.6c8.6,45.4,16.6,69.9,24,73.5h-22c0.5,0-3.3-0.2-11.4-0.7
			c-6-0.3-11.7-0.1-17,0.7l3.4-5.5c-0.2-4.9-1.2-16-3.1-33.2h-31.2c-3.3,16.8-4.9,26.7-4.9,29.8c0,4.2,0.9,7.2,2.8,8.9
			c-1.7-0.2-5.1-0.2-10.1,0c-6.6,0-11.9,0-16,0h-16.3c4.6-2.6,8.3-8.8,11.1-18.6c2.1-6.7,6.5-26.3,13.2-58.8l7.2-34.6
			c2.8-12.2,5.5-24.4,8.3-36.6c2.4-10.5,3.6-17.9,3.6-22.2c0-6-2.2-9.8-6.7-11.3c3.1,0,7.5,0,13.2,0h15.2c4,0,8.7,0,14.2,0
			c5.5,0,10.4,0,14.7,0c-6.7,2.4-10.1,7.4-10.1,15c0,4.3,1.1,11.6,3.4,21.9C343.6,388,346.1,399.6,346.6,401.9L346.6,401.9z
			 M300.9,439.3h21.4L312,372.6L300.9,439.3L300.9,439.3z"/>
		<path fill-rule="evenodd" clip-rule="evenodd" d="M421.3,419.2v40.9c0,42.9,0.3,70.9,0.7,83.9c0.3,11.1,1.4,19.7,3.6,25.7
			c1.4,3.6,4.1,7.5,8,11.6h-27.5h-31.5c2.6-4.3,5.2-8.6,7.6-12.7c3.1-6.5,4.8-14.8,5.1-25c0.5-14.7,0.7-42.3,0.7-82.9v-42.7
			c0-31.6-0.2-51.1-0.7-58.6l-13-0.7c-5.5-0.2-10.7,2.4-15.6,8c-3.1,4.1-5.4,8.7-6.9,13.7c0-3.6,0.7-8.8,2.2-15.6
			c1.4-9.7,2.4-16.5,2.9-20.3c0.7-1.9,1.9-8.1,3.6-18.5c3.9-0.2,10.1-0.2,18.8,0c10.4,0,18.1,0,23.1,0c19.8,0,34.3-0.7,43.8-2.2
			c0,2.2,1.6,10.6,4.7,25.2c1.7,8.3,3.6,18.7,5.8,31.4c-3.9-7-6.8-11.6-8.7-13.7c-5.1-5.8-10.7-8.4-17-8l-9.8,0.7
			c0.2,4.6,0.2,12.7,0,24.2C421.4,399.9,421.4,411.7,421.3,419.2L421.3,419.2z"/>
		<path fill-rule="evenodd" clip-rule="evenodd" d="M496.3,392.7l-0.5,34.9v41.6c0,10,0.3,16.3,0.8,18.9c1,3.3,3.3,4.9,6.7,4.9
			c1.9,0,5.4-0.5,10.6-1.5c7.2-1.4,13.5-4.3,18.9-8.8c3.1-3.1,6.1-6.2,9-9.3c-1.9,9.5-4,22.3-6.5,38.7c-6.2-0.4-15-0.4-26.3,0
			c-18.4,0-26.8,0-25,0h-27.1c2.1-4.3,3.4-8.6,3.9-12.9c1.2-7.4,1.8-36.3,1.8-86.8v-49.1c0-14.6-1.6-25.7-4.9-33.3h22.7h21.2
			c-0.9,1.6-1.7,3.2-2.6,4.9c-0.9,1.7-1.4,4-1.6,7C497.1,343.4,496.8,360.3,496.3,392.7L496.3,392.7z"/>
		<path fill-rule="evenodd" clip-rule="evenodd" d="M578.4,421.5l-0.5,52.4c-0.1,10.8,0,17,0.3,18.3c0.5,2.9,2.2,4.4,5.2,4.4
			c1,0,3.3-0.3,6.7-0.8c11.2-1.5,18.4-3,21.7-4.4c4.3-1.9,10.2-6.6,17.6-14.2c-1,7.9-2.8,19.4-5.4,34.5h-39c0.2,0-8,0-24.5,0
			c-10-0.2-18.3-0.2-24.8,0c1.4-3.4,2.2-5.9,2.6-7.2c0.9-2.6,1.4-5.9,1.6-10.1c0.5-9.3,0.8-26.9,0.8-52.7v-46
			c0-12.9-0.1-25.7-0.3-38.2c-0.4-8.6-0.9-14.6-1.6-18.1c-0.4-1.9-1.6-5-3.6-9.3c3.1-0.2,8-0.2,14.7,0h22.5h51.7
			c0.2,0.2-0.3,4.6-1.3,13.3l-1.8,14c-2.2-3.4-4-5.5-5.4-6.1c-1.4-0.6-4.6-1.1-9.6-1.4c-8.1-0.5-17.3-0.6-27.6-0.3v50.1h12.4
			c7.9,0,12.9-0.2,15-0.5c3.3-0.3,6.5-1.5,9.6-3.4l0.1,12.9c0,11.2,0,16.8-0.1,16.8c-3.4-2.8-9.8-4.1-19.1-4.1H578.4L578.4,421.5z"
			/>
		<path fill-rule="evenodd" clip-rule="evenodd" d="M676.6,326.2c6.9,0.2,13.9,1.9,21.2,5.2c7.2,3.3,11.6,4.9,13.2,4.9
			c2.2,0,4.3-1.1,6.2-3.3c-1.4,4.9-3.9,14.2-7.5,27.8c-6-5.7-9.4-8.8-10.1-9.3c-5-3.4-11.2-5.3-18.6-5.7c-5.7-0.2-10.6,1.5-14.7,5.2
			c-5,4.3-7.5,10.5-7.5,18.6c0,9.6,4,17.3,12.1,23.2c8.4,5,17,9.9,25.6,14.7c20.7,12.4,31,28.2,31,47.4c0,18-4.9,32.2-14.7,42.5
			c-10.5,11-25.6,16.5-45.2,16.5c-11.2,0-20.7-3.2-28.4-9.5c-8.6-7-13.4-16.4-14.5-28.2c0.2-7.7,1.8-13.8,4.9-18.2
			c2.4-3.6,5-5.4,7.7-5.4c1.7,0,2.6,0.9,2.6,2.6c0,1.2-0.7,2.7-2.1,4.4c-0.5,2.1-0.8,4.1-0.8,6.2c0,7.1,2.4,13.3,7.2,18.7
			c4.8,5.4,9.9,8.3,15.2,8.6c10.5,0.7,18.7-1.6,24.7-6.8c5.9-5.2,8.9-12.9,8.9-22.8c0-11-5.3-21-15.8-29.9c-0.2-0.2-9-5.6-26.6-16.3
			c-12.6-7.6-20.4-18.1-23.5-31.5c-2.1-9.5-1.6-18.6,1.3-27.3C636,336.3,652,325.5,676.6,326.2L676.6,326.2z"/>
	</g>
</g>
</svg>
